<svg width="176" height="78" viewBox="0 0 176 78" fill="none" xmlns="http://www.w3.org/2000/svg">
<path d="M54.5739 60V13.4545H70.3011C73.9375 13.4545 76.9223 14.0758 79.2557 15.3182C81.589 16.5455 83.3163 18.2348 84.4375 20.3864C85.5587 22.5379 86.1193 24.9848 86.1193 27.7273C86.1193 30.4697 85.5587 32.9015 84.4375 35.0227C83.3163 37.1439 81.5966 38.8106 79.2784 40.0227C76.9602 41.2197 73.9981 41.8182 70.392 41.8182H57.6648V36.7273H70.2102C72.6951 36.7273 74.6951 36.3636 76.2102 35.6364C77.7405 34.9091 78.8466 33.8788 79.5284 32.5455C80.2254 31.197 80.5739 29.5909 80.5739 27.7273C80.5739 25.8636 80.2254 24.2348 79.5284 22.8409C78.8314 21.447 77.7178 20.3712 76.1875 19.6136C74.6572 18.8409 72.6345 18.4545 70.1193 18.4545H60.2102V60H54.5739ZM76.483 39.0909L87.9375 60H81.392L70.1193 39.0909H76.483ZM95.763 22.176C94.0563 22.176 92.9257 21.6213 92.371 20.512C91.8163 19.36 91.539 18.144 91.539 16.864C91.539 16.3947 91.5603 15.904 91.603 15.392C91.6883 14.8373 91.795 14.2187 91.923 13.536L95.123 12.64C94.995 13.3653 94.8883 14.048 94.803 14.688C94.7603 15.2853 94.739 15.8187 94.739 16.288C94.739 17.0987 94.867 17.696 95.123 18.08C95.379 18.464 95.7843 18.656 96.339 18.656C96.979 18.656 97.5123 18.336 97.939 17.696C98.3657 17.0133 98.6003 15.6693 98.643 13.664V11.744L101.715 10.592V14.496C101.715 15.0933 101.822 15.6267 102.035 16.096C102.291 16.5227 102.803 16.736 103.571 16.736C104.339 16.736 104.851 16.5013 105.107 16.032C105.363 15.5627 105.491 14.9653 105.491 14.24C105.491 13.5147 105.406 12.7893 105.235 12.064C105.064 11.296 104.83 10.5493 104.531 9.824L107.411 8.928C107.838 9.73866 108.179 10.6773 108.435 11.744C108.734 12.768 108.883 13.7067 108.883 14.56C108.883 15.968 108.478 17.248 107.667 18.4C106.899 19.5093 105.683 20.064 104.019 20.064C102.696 20.064 101.608 19.7227 100.755 19.04C99.9443 18.3147 99.539 17.4613 99.539 16.48L101.011 17.056C101.011 18.5067 100.499 19.7227 99.475 20.704C98.4937 21.6853 97.2563 22.176 95.763 22.176ZM116.784 45.7273V25.0909H122.148V60H116.784V54.0909H116.42C115.602 55.8636 114.33 57.3712 112.602 58.6136C110.875 59.8409 108.693 60.4545 106.057 60.4545C103.875 60.4545 101.936 59.9773 100.239 59.0227C98.5417 58.053 97.2083 56.5985 96.2386 54.6591C95.2689 52.7045 94.7841 50.2424 94.7841 47.2727V25.0909H100.148V46.9091C100.148 49.4545 100.86 51.4848 102.284 53C103.723 54.5152 105.557 55.2727 107.784 55.2727C109.117 55.2727 110.473 54.9318 111.852 54.25C113.246 53.5682 114.413 52.5227 115.352 51.1136C116.307 49.7045 116.784 47.9091 116.784 45.7273Z" fill="black"/>
<rect x="57" y="74.6966" width="24.9726" height="3" transform="rotate(-20.3801 57 74.6966)" fill="black"/>
</svg>
